{"title":"The BFG 2016 HDCAM x264-VAiN","uid":15256406,"size":1664733133,"categoryP":"video","categoryS":"movies","magnet":"?xt=urn:btih:e318907e463cb44bcda17f6416cd699c29ffced4&amp;dn=The+BFG+2016+HDCAM+x264-VAiN&amp;tr=udp%3A%2F%2Ftracker.leechers-paradise.org%3A6969&amp;tr=udp%3A%2F%2Fzer0day.ch%3A1337&amp;tr=udp%3A%2F%2Fopen.demonii.com%3A1337&amp;tr=udp%3A%2F%2Ftracker.coppersurfer.tk%3A6969&amp;tr=udp%3A%2F%2Fexodus.desync.com%3A6969","seeders":5,"leechers":3,"uploader":"makintos13","files":3,"time":1468129513,"description":"The BFG 2016 HDCAM x264-VAiN\r\n\r\nscreens:\r\n \nhttps://imgmak.com/Tis\r\n \nhttps://imgmak.com/Ti4\r\n \nhttps://imgmak.com/Ti8\r\n \nhttps://imgmak.com/TiL\r\n \nhttps://imgmak.com/TiX\r\n \nhttps://imgmak.com/TjC\r\n\r\nP R E S E N T S . . . .\r\n\r\nThe.BFG.2016.HDCAM-VAiN\r\n\r\niMDB........: http://www.imdb.com/title/tt3691740/\r\n\r\n\r\n\r\nT E C H N i C A L . i N F O . . .\r\n\r\nBasic Information\r\nFormat : Matroska\r\nFormat version : Version 4 / Version 2\r\nFile size : 1.54 GiB\r\nDuration : 1h 52mn\r\nOverall bit rate mode : Variable\r\nOverall bit rate : 1 962 Kbps\r\nEncoded date : UTC 2016-07-09 17:20:49\r\nWriting application : mkvmerge v8.3.0 ('Over the Horizon') 64bit\r\nWriting library : libebml v1.3.1 + libmatroska v1.4.2\r\n\r\nVideo\r\nID : 1\r\nFormat : AVC\r\nFormat/Info : Advanced Video Codec\r\nFormat profile :   \r\nFormat settings, CABAC : Yes\r\nFormat settings, ReFrames : 3 frames\r\nCodec ID : V_MPEG4/ISO/AVC\r\nDuration : 1h 52mn\r\nBit rate mode : Variable\r\nBit rate : 1 640 Kbps\r\nMaximum bit rate : 40.0 Mbps\r\nWidth : 720 pixels\r\nHeight : 352 pixels\r\nDisplay aspect ratio : 2.045\r\nFrame rate mode : Constant\r\nFrame rate : 29.940 fps\r\nColor space : YUV\r\nChroma subsampling : 4:2:0\r\nBit depth : 8 bits\r\nScan type : Progressive\r\nBits/(Pixel*Frame) : 0.216\r\nStream size : 1.29 GiB (84%)\r\nWriting library : x264 core 148 r2692 64f4e24\r\n\r\nLanguage : English\r\nDefault : Yes\r\nForced : No\r\nColor range : Full\r\nColor primaries : BT.709\r\nTransfer characteristics : BT.709\r\nMatrix coefficients : BT.709\r\n\r\nAudio\r\nID : 2\r\nFormat : MPEG Audio\r\nFormat version : Version 1\r\nFormat profile : Layer 3\r\nMode : Joint stereo\r\nMode extension : MS Stereo\r\nCodec ID : A_MPEG/L3\r\nCodec ID/Hint : MP3\r\nDuration : 1h 52mn\r\nBit rate mode : Constant\r\nBit rate : 320 Kbps\r\nChannel(s) : 2 channels\r\nSampling rate : 48.0 KHz\r\nFrame rate : 41.667 fps (1152 spf)\r\nCompression mode : Lossy\r\nStream size : 257 MiB (16%)\r\nLanguage : English\r\nDefault : Yes\r\nForced : No\r\n\r\nE N C O D E R S . N O T E S . . .\r\n\r\nSOURCE......: ViDEO...THEBFG\r\n............: AUDiO...CPG\r\nSAMPLE......: Yippers\r\nADDED NOTE..: sumn very nice poo. HDCAM is pretty good, audio is very nice for cam.\r\nas usual took the ol' poo-shine and polished up this turd","torrent":{"xt":"urn:btih:e318907e463cb44bcda17f6416cd699c29ffced4","amp;dn":"The+BFG+2016+HDCAM+x264-VAiN","amp;tr":["udp%3A%2F%2Ftracker.leechers-paradise.org%3A6969","udp%3A%2F%2Fzer0day.ch%3A1337","udp%3A%2F%2Fopen.demonii.com%3A1337","udp%3A%2F%2Ftracker.coppersurfer.tk%3A6969","udp%3A%2F%2Fexodus.desync.com%3A6969"],"infoHash":"e318907e463cb44bcda17f6416cd699c29ffced4","infoHashBuffer":{"type":"Buffer","data":[227,24,144,126,70,60,180,75,205,161,127,100,22,205,105,156,41,255,206,212]},"announce":[],"urlList":[]}}